<?xml version="1.0" encoding="utf-8"?>
<!-- Generator: Adobe Illustrator 17.0.0, SVG Export Plug-In . SVG Version: 6.00 Build 0)  -->
<!DOCTYPE svg PUBLIC "-//W3C//DTD SVG 1.1//EN" "http://www.w3.org/Graphics/SVG/1.1/DTD/svg11.dtd">
<svg version="1.1" id="Layer_1" xmlns="http://www.w3.org/2000/svg" xmlns:xlink="http://www.w3.org/1999/xlink" x="0px" y="0px"
	 width="84px" height="67px" viewBox="0 0 84 67" enable-background="new 0 0 84 67" xml:space="preserve">
<path fill-rule="evenodd" clip-rule="evenodd" fill="#FFFFFF" d="M78,55V8.962C78,3.874,74.738,0,69.65,0H16.252
	C11.164,0,6,3.874,6,8.962V55H0.68L0,60.819v0.123C0,64.554,3.7,67,7.312,67h71.485C82.408,67,84,64.554,84,60.942v-0.123V55H78z
	 M7,8.962C7,4.439,11.729,1,16.252,1H69.65C74.174,1,77,4.439,77,8.962V55H54.443c-0.429,2-2.382,4-4.726,4H35.571
	c-2.343,0-4.296-2-4.727-4H7V8.962z"/>
<path fill="#FFFFFF" d="M62.01,25H28.17l-10.427,5.283l10.032,5.874l0.073-0.057l5.877-0.1H62.01c3.023,0,5.482-2.477,5.482-5.5
	C67.492,27.477,65.033,25,62.01,25 M54,26h2v10h-2V26z M53,36h-1V26h1V36z M26.524,26.536l-0.501,0.848l1.657,1.388l-1.411,1.931
	l1.505,1.576l-1.453,1.471l0.615,1.611L23,33.409v-5.418L26.524,26.536z M22,28.297v4.752l-4.442-2.566L22,28.297z M28.492,35.826
	l-1.336-1.925l1.519-1.562l-1.52-1.654l1.507-1.975l-1.474-1.359l1.283-1.357L28.444,26H51v10H33.725L28.492,35.826z M62.01,36H57
	V26h5.01c2.68,0,4.859,2.32,4.859,5C66.869,33.682,64.69,36,62.01,36"/>
</svg>
