<?xml version="1.0" encoding="utf-8"?>
<!-- Generator: Adobe Illustrator 17.0.0, SVG Export Plug-In . SVG Version: 6.00 Build 0)  -->
<!DOCTYPE svg PUBLIC "-//W3C//DTD SVG 1.1//EN" "http://www.w3.org/Graphics/SVG/1.1/DTD/svg11.dtd">
<svg version="1.1" id="Layer_1" xmlns="http://www.w3.org/2000/svg" xmlns:xlink="http://www.w3.org/1999/xlink" x="0px" y="0px"
	 width="156.38px" height="120.3px" viewBox="0 0 156.38 120.3" enable-background="new 0 0 156.38 120.3" xml:space="preserve">
<g>
	<path fill-rule="evenodd" clip-rule="evenodd" fill="#959494" d="M57.186,102.557c3.483-3.512,6.973-7.027,10.425-10.506
		c25.851,16.347,47.801,14.996,63.316-3.759c13.814-16.697,12.943-40.969-2.246-56.647c-13.732-14.179-38.57-20.01-60.928-0.976
		c-3.18-3.737-6.403-7.521-9.718-11.414c13.62-17.23,51.174-24.587,76.947-3.269c26.173,21.647,28.59,60.927,5.85,85.071
		C116.331,127.068,75.767,123.432,57.186,102.557"/>
	<path fill-rule="evenodd" clip-rule="evenodd" fill="#959494" d="M53.619,71.137c-14.736,0-29.475,0.065-44.212-0.021
		c-10.896-0.065-9.228,1.502-9.386-9.473c-0.045-3.226-0.005-6.452-0.005-10.45h55.469c-5.917-5.507-10.598-9.863-16.1-14.982
		c4.622-5.068,8.434-9.248,12.287-13.471c13.653,13.842,25.783,26.139,37.276,37.792c-11.98,12.376-24.201,25.003-37.38,38.62
		c-3.996-3.954-7.884-7.798-12.695-12.556c6.038-5.165,10.924-9.344,15.812-13.523C54.329,72.429,53.974,71.783,53.619,71.137"/>
	<path fill-rule="evenodd" clip-rule="evenodd" fill="#959494" d="M98.896,61.831C92.39,55.833,86.977,50.842,81.64,45.92
		c7.88-9.578,22.062-10.192,31.485-2.122c9.532,8.16,10.579,22.933,2.312,32.537c-8.624,10.016-23.055,10.676-33.894,0.829
		c2.734-2.55,5.402-5.147,8.188-7.609C92.556,67.054,95.497,64.684,98.896,61.831"/>
</g>
</svg>
