<?xml version="1.0" encoding="utf-8"?>
<!-- Generator: Adobe Illustrator 17.0.0, SVG Export Plug-In . SVG Version: 6.00 Build 0)  -->
<!DOCTYPE svg PUBLIC "-//W3C//DTD SVG 1.1//EN" "http://www.w3.org/Graphics/SVG/1.1/DTD/svg11.dtd">
<svg version="1.1" id="Layer_1" xmlns="http://www.w3.org/2000/svg" xmlns:xlink="http://www.w3.org/1999/xlink" x="0px" y="0px"
	 width="39px" height="39px" viewBox="0 0 39 39" enable-background="new 0 0 39 39" xml:space="preserve">
<path fill="#FFFFFF" d="M39,8.01C39,3.586,35.414,0,30.99,0H8.01C3.586,0,0,3.586,0,8.01v22.98C0,35.414,3.586,39,8.01,39h22.98
	c4.424,0,8.01-3.586,8.01-8.01V8.01z M31,21h-5v13h-5V21h-4v-5h3.496c0,0-0.008-0.598,0.001-0.781
	c0.071-1.444,0.063-2.985,0.24-4.418c0.29-2.324,1.258-3.333,3.585-3.755c2.198-0.399,4.39-0.345,6.609-0.359
	c0.027,0,0.069,0,0.069,0.022v4.901c0,0-1.575-0.026-2.372,0.012c-0.492,0.023-0.966,0.117-1.446,0.232
	c-0.516,0.126-0.846,0.685-0.893,1.206C26.211,13.957,26.208,15,26.165,16H31V21z"/>
</svg>
