<?xml version="1.0" encoding="utf-8"?>
<!-- Generator: Adobe Illustrator 17.0.0, SVG Export Plug-In . SVG Version: 6.00 Build 0)  -->
<!DOCTYPE svg PUBLIC "-//W3C//DTD SVG 1.1//EN" "http://www.w3.org/Graphics/SVG/1.1/DTD/svg11.dtd">
<svg version="1.1" id="Layer_1" xmlns="http://www.w3.org/2000/svg" xmlns:xlink="http://www.w3.org/1999/xlink" x="0px" y="0px"
	 width="101.647px" height="64.619px" viewBox="0 0 101.647 64.619" enable-background="new 0 0 101.647 64.619"
	 xml:space="preserve">
<path fill="none" stroke="#FFFFFF" stroke-width="2" stroke-miterlimit="10" d="M86.67,48.857c-2.155,0-4.223-0.507-6.145-1.508
	l-2.577-1.344l-0.316,2.889c-0.679,6.194-5.893,10.864-12.131,10.864c-3.931,0-7.645-1.922-9.939-5.141l-2.036-2.858l-1.404,3.215
	c-2.234,5.117-7.28,8.424-12.855,8.424c-5.692,0-10.779-3.4-12.959-8.662l-0.638-1.538l-1.625,0.357
	c-1.314,0.288-2.653,0.436-3.983,0.436c-10.183,0-18.468-8.284-18.468-18.467c0-8.078,5.4-15.35,13.133-17.681l1.13-0.341
	l0.241-1.153C17.953,7.505,26.03,1.086,35.301,1.086c9.147,0,17.201,6.32,19.148,15.024l1.125,5.035l2.542-4.488
	c2.316-4.085,6.659-6.622,11.337-6.622c6.315,0,11.703,4.513,12.811,10.729l0.342,1.925l1.931-0.311
	c0.787-0.126,1.488-0.189,2.133-0.189c7.353,0,13.336,5.982,13.336,13.335C100.006,42.877,94.023,48.857,86.67,48.857z"/>
<circle fill="none" stroke="#FFFFFF" stroke-width="2" stroke-miterlimit="10" cx="68.003" cy="36.014" r="7.317"/>
<line fill="none" stroke="#FFFFFF" stroke-width="2" stroke-miterlimit="10" x1="68.506" y1="32.141" x2="68.506" y2="40.141"/>
</svg>
