<?xml version="1.0" encoding="utf-8"?>
<!-- Generator: Adobe Illustrator 17.0.0, SVG Export Plug-In . SVG Version: 6.00 Build 0)  -->
<!DOCTYPE svg PUBLIC "-//W3C//DTD SVG 1.1//EN" "http://www.w3.org/Graphics/SVG/1.1/DTD/svg11.dtd">
<svg version="1.1" id="Layer_1" xmlns="http://www.w3.org/2000/svg" xmlns:xlink="http://www.w3.org/1999/xlink" x="0px" y="0px"
	 width="53.642px" height="75.917px" viewBox="0 0 53.642 75.917" enable-background="new 0 0 53.642 75.917" xml:space="preserve">
<g>
	<path fill="#FFFFFF" d="M26.689,0C11.881,0,0,12.004,0,26.81c0,10.84,5.812,20.169,15.812,24.396v10.711h10.102h2.111h9.787V51.334
		c10-4.164,15.83-13.575,15.83-24.524C53.642,12.004,41.496,0,26.689,0 M36.37,49.402l-1.558,0.556v1.376v9.583h-7V40.332
		l8.202-8.915l-1.511-1.419l-7.772,8.589l-8.771-8.632l-1.525,1.505l9.377,9.26v20.197h-8v-9.711v-1.358l-1.299-0.563
		C7.73,45.275,2.021,36.453,2.021,26.81c0-13.619,11.092-24.699,24.711-24.699c13.619,0,24.579,11.08,24.579,24.699
		C51.311,36.578,45.309,45.445,36.37,49.402"/>
	<rect x="15.812" y="64.917" fill="#FFFFFF" width="22" height="2"/>
	<rect x="15.812" y="69.917" fill="#FFFFFF" width="22" height="1"/>
	<rect x="15.812" y="73.917" fill="#FFFFFF" width="22" height="2"/>
</g>
</svg>
