<?xml version="1.0" encoding="utf-8"?>
<!-- Generator: Adobe Illustrator 17.0.0, SVG Export Plug-In . SVG Version: 6.00 Build 0)  -->
<!DOCTYPE svg PUBLIC "-//W3C//DTD SVG 1.1//EN" "http://www.w3.org/Graphics/SVG/1.1/DTD/svg11.dtd">
<svg version="1.1" id="Layer_1" xmlns="http://www.w3.org/2000/svg" xmlns:xlink="http://www.w3.org/1999/xlink" x="0px" y="0px"
	 width="133.081px" height="126.692px" viewBox="0 0 133.081 126.692" enable-background="new 0 0 133.081 126.692"
	 xml:space="preserve">
<g>
	<path fill-rule="evenodd" clip-rule="evenodd" fill="#959494" d="M0,60.882c0.267-2.145,0.496-4.294,0.806-6.433
		C2.265,44.37,6.095,35.262,12.259,27.178C21.947,14.474,34.726,6.697,50.453,3.982c11.659-2.014,22.952-0.489,33.831,4.222
		c6.169,2.671,12.506,7.018,15.698,10.053c-0.022,0.077-0.026,0.203-0.075,0.224c-1.616,0.669-1.745,1.922-1.646,3.495
		c0.192,3.071,0.152,6.16,0.22,9.24c0.012,0.502,0.082,1.004,0.152,1.802c1.286-0.838,2.388-1.492,3.405-2.261
		c0.263-0.199,0.363-0.756,0.358-1.146c-0.052-3.211-0.172-6.422-0.199-9.633c-0.005-0.481,0.225-1.175,0.583-1.414
		c5.41-3.618,10.859-7.176,16.301-10.744c0.066-0.042,0.164-0.037,0.564-0.119v11.476c1.335-0.828,2.275-1.412,3.371-2.092
		c0.915,1.363,1.817,2.711,2.789,4.159c-0.999,0.676-1.951,1.318-3.143,2.122c3.589,1.663,6.94,3.217,10.419,4.829
		c-0.429,0.323-0.722,0.567-1.04,0.775c-5.075,3.336-10.165,6.653-15.222,10.017c-0.737,0.491-1.328,0.574-2.135,0.187
		c-2.815-1.348-5.648-2.659-8.512-3.895c-0.487-0.21-1.309-0.203-1.733,0.075c-14.311,9.348-28.595,18.742-42.88,28.132
		c-0.213,0.139-0.402,0.315-0.718,0.565c0.519,0.808,1.023,1.591,1.644,2.559c3.676-2.423,7.281-4.796,11.028-7.267
		c0.938,2.563,0.92,5.052,0.273,7.548c-1.671,6.446-7.457,10.619-14.292,10.355c-6.213-0.241-11.74-5.191-12.84-11.503
		c-0.972-5.577,1.378-11.095,6.259-14.104c4.965-3.062,10.025-2.951,14.959,0.168c0.804,0.507,1.373,0.6,2.195,0.031
		c2.243-1.55,4.554-3.003,6.953-4.568c-1.734-1.974-3.721-3.407-5.911-4.534c-12.854-6.622-28.196-0.417-32.876,13.267
		c-4.751,13.895,4.909,28.988,19.513,30.493c13.142,1.354,24.649-8.018,25.856-21.117c0.319-3.454-0.124-6.85-1.453-10.074
		c-0.408-0.993-0.25-1.517,0.674-2.102c3.473-2.204,6.888-4.497,10.329-6.758c7.295,12.553,6.04,32.975-9.242,45.542
		c-15.264,12.554-37.751,10.947-50.836-3.5C19.58,73.589,19.974,51.25,34.11,37.182c7.64-7.602,16.973-11.293,27.768-10.842
		c10.795,0.452,19.658,5.066,26.851,13.228c2.385-1.568,4.719-3.101,7.063-4.641C83.626,19.004,59.603,11.755,38.518,23.279
		C16.465,35.329,8.164,62.334,19.961,84.648c11.594,21.926,37.491,29.858,58.802,20.493c23.449-10.305,34.796-38.956,21.806-63.563
		c1.131-0.74,2.252-1.536,3.444-2.209c0.276-0.157,0.828,0.019,1.186,0.186c2.554,1.186,5.116,2.362,7.622,3.646
		c1.122,0.576,2.075,0.757,3.055-0.182c0.204-0.196,0.512-0.282,1.099-0.594c0.944,3.781,2.102,7.373,2.689,11.056
		c0.591,3.707,0.917,7.51,0.835,11.26c-0.332,15.146-5.728,28.341-15.988,39.472c-8.858,9.61-19.762,15.8-32.606,18.202
		c-17.692,3.311-33.903-0.429-48.224-11.379C11.15,101.456,3.646,88.694,0.905,73.161c-0.323-1.83-0.405-3.702-0.613-5.553
		C0.216,66.927,0.099,66.25,0,65.571V60.882z"/>
</g>
</svg>
