<?xml version="1.0" encoding="utf-8"?>
<!-- Generator: Adobe Illustrator 17.0.0, SVG Export Plug-In . SVG Version: 6.00 Build 0)  -->
<!DOCTYPE svg PUBLIC "-//W3C//DTD SVG 1.1//EN" "http://www.w3.org/Graphics/SVG/1.1/DTD/svg11.dtd">
<svg version="1.1" id="Layer_1" xmlns="http://www.w3.org/2000/svg" xmlns:xlink="http://www.w3.org/1999/xlink" x="0px" y="0px"
	 width="126.497px" height="120.3px" viewBox="0 0 126.497 120.3" enable-background="new 0 0 126.497 120.3" xml:space="preserve">
<g>
	<path fill-rule="evenodd" clip-rule="evenodd" fill="#959494" d="M3.248,54.055c0.233-1.414,0.374-2.851,0.719-4.237
		c0.864-3.473,1.675-6.97,2.777-10.369c1.42-4.377,3.521-8.471,6.121-12.27c1.556-2.272,3.275-4.44,5.011-6.582
		c1.072-1.322,2.226-2.608,3.504-3.729c2.427-2.126,4.968-4.121,7.462-6.17c0.226-0.186,0.451-0.373,0.837-0.692h-7.29
		c-3.084,0-6.169,0.005-9.253-0.003c-1.761-0.004-2.882-1.092-2.859-2.746c0.021-1.433,1.153-2.405,2.81-2.405
		C20.778,4.851,28.47,4.914,36.159,4.82c2.951-0.037,3.331,1.236,3.361,3.294c0.111,7.494,0.082,14.991-0.004,22.486
		c-0.011,0.941-0.496,2.025-1.098,2.773c-0.669,0.829-1.816,0.755-2.768,0.302c-1.148-0.545-1.463-1.636-1.466-2.798
		c-0.019-5.309-0.008-10.619-0.008-15.928v-1.543c-1.682,1.173-3.267,2.105-4.644,3.281c-2.239,1.912-4.396,3.926-6.487,6
		c-2.96,2.935-5.438,6.284-7.376,9.956c-1.742,3.3-3.345,6.708-4.62,10.21c-1.332,3.654-2.183,7.481-2.416,11.404
		c-0.143,2.391-0.461,4.783-0.415,7.168c0.052,2.73,0.405,5.454,0.661,8.177c0.11,1.175-0.504,1.921-1.395,2.474
		c-0.94,0.585-1.994,0.353-2.674-0.312c-0.569-0.556-0.833-1.486-1.07-2.298c-0.261-0.891-0.336-1.837-0.492-2.759V54.055z"/>
	<path fill-rule="evenodd" clip-rule="evenodd" fill="#959494" d="M113.37,26.904c0-5.859-0.004-11.403,0.002-16.946
		c0.002-1.31,0.715-2.331,1.943-2.688c1.13-0.329,2.09,0.05,2.738,1.015c0.26,0.389,0.45,0.912,0.452,1.374
		c0.026,8.043,0.033,16.087,0.01,24.13c-0.006,1.848-0.947,2.636-3.267,2.67c-5.309,0.075-10.619,0.023-15.93,0.023
		c-2.225,0-4.451,0.024-6.677-0.006c-2.467-0.032-3.722-1.685-2.938-3.816c0.362-0.985,1.378-1.563,2.821-1.565
		c5.232-0.005,10.464-0.002,15.696-0.002h1.582c-0.816-1.221-1.434-2.344-2.24-3.312c-2.023-2.43-3.979-4.947-6.238-7.146
		c-4.792-4.664-10.225-8.475-16.492-10.913c-3.33-1.294-6.737-2.463-10.2-3.32c-2.662-0.659-5.461-0.836-8.212-1.051
		c-2.027-0.158-4.086-0.163-6.112,0.001c-2.787,0.226-5.556,0.676-8.333,1.03c-0.914,0.116-1.825,0.295-2.741,0.329
		c-1.514,0.054-2.495-0.673-2.638-1.839c-0.208-1.691,0.634-2.946,2.18-3.294c6.664-1.506,13.445-1.769,20.201-1.34
		c6.081,0.385,11.955,2.017,17.59,4.421c5.283,2.254,10.209,5.128,14.605,8.796c4.045,3.376,7.735,7.143,10.781,11.486
		C112.362,25.525,112.787,26.097,113.37,26.904"/>
	<path fill-rule="evenodd" clip-rule="evenodd" fill="#959494" d="M92.646,106.695c2.421-1.93,4.868-3.828,7.258-5.797
		c4.541-3.742,8.068-8.366,10.994-13.405c2.789-4.806,4.935-9.94,5.954-15.437c0.579-3.124,0.922-6.301,1.169-9.471
		c0.182-2.336,0.14-4.704,0.002-7.047c-0.111-1.905-0.56-3.787-0.765-5.69c-0.101-0.939-0.207-1.972,0.077-2.836
		c0.383-1.163,1.659-1.617,2.961-1.385c0.968,0.172,1.72,1.207,1.983,2.567c0.827,4.272,0.912,8.586,0.966,12.923
		c0.098,8.008-1.641,15.583-4.802,22.891c-2.375,5.493-5.488,10.507-9.402,15.032c-3.531,4.08-7.421,7.755-11.922,10.757
		c-0.147,0.097-0.265,0.24-0.536,0.491h5.129c3.905,0,7.808-0.006,11.711,0.003c1.375,0.003,2.274,0.629,2.674,1.924
		c0.35,1.13-0.021,2.109-0.994,2.732c-0.479,0.308-1.136,0.473-1.713,0.475c-7.651,0.03-15.303-0.052-22.953,0.057
		c-2.939,0.042-3.437-1.083-3.518-3.629c-0.104-3.354-0.025-6.714-0.025-10.07c0-3.942-0.072-7.888,0.049-11.826
		c0.032-1.03,0.468-2.189,1.082-3.02c0.63-0.851,1.803-0.76,2.76-0.325c1.163,0.53,1.484,1.62,1.489,2.781
		c0.02,5.27,0.009,10.54,0.009,15.81v1.252L92.646,106.695z"/>
	<path fill-rule="evenodd" clip-rule="evenodd" fill="#959494" d="M13.089,93.487c0,5.853,0.006,11.351-0.004,16.848
		c-0.003,1.64-1.163,2.788-2.748,2.764c-1.233-0.018-2.394-1.107-2.395-2.344c-0.014-8.12-0.019-16.24,0.001-24.36
		c0.005-1.628,1.073-2.562,3.025-2.57c7.65-0.032,15.303-0.036,22.954,0c2.387,0.011,3.598,1.712,2.835,3.797
		c-0.366,0.999-1.364,1.574-2.81,1.576c-5.348,0.006-10.696,0.003-16.045,0.003h-1.497c1.862,2.418,3.427,4.685,5.237,6.738
		c1.865,2.117,3.849,4.163,5.998,5.986c2.269,1.926,4.691,3.721,7.232,5.27c3.821,2.331,7.863,4.308,12.225,5.418
		c3.394,0.864,6.847,1.545,10.309,2.09c2.318,0.364,4.698,0.507,7.044,0.46c2.729-0.055,5.449-0.473,8.178-0.64
		c1.622-0.099,2.69,0.831,2.784,2.207c0.11,1.587-0.927,2.689-2.591,2.939c-5.067,0.763-10.179,0.638-15.244,0.38
		c-5.269-0.269-10.405-1.594-15.361-3.498c-4.808-1.845-9.384-4.133-13.541-7.184c-2.041-1.498-3.98-3.138-5.917-4.77
		C19.055,101.478,16.112,97.681,13.089,93.487"/>
</g>
</svg>
