<?xml version="1.0" encoding="utf-8"?>
<!-- Generator: Adobe Illustrator 17.0.0, SVG Export Plug-In . SVG Version: 6.00 Build 0)  -->
<!DOCTYPE svg PUBLIC "-//W3C//DTD SVG 1.1//EN" "http://www.w3.org/Graphics/SVG/1.1/DTD/svg11.dtd">
<svg version="1.1" id="Layer_1" xmlns="http://www.w3.org/2000/svg" xmlns:xlink="http://www.w3.org/1999/xlink" x="0px" y="0px"
	 width="135.147px" height="135.141px" viewBox="0 0 135.147 135.141" enable-background="new 0 0 135.147 135.141"
	 xml:space="preserve">
<path fill-rule="evenodd" clip-rule="evenodd" fill="#FFFFFF" d="M68.993,0c2.68,0.82,4.648,2.615,6.585,4.557
	c18.69,18.747,37.421,37.454,56.139,56.173c4.588,4.588,4.572,9.465-0.041,14.078c-18.718,18.718-37.416,37.458-56.191,56.12
	c-1.671,1.662-3.842,2.82-5.781,4.213h-4.268c-2.083-1.59-4.374-2.972-6.217-4.804C41.15,112.376,23.134,94.361,5.174,76.291
	C3.219,74.324,1.713,71.911,0,69.705v-4.267c0.973-1.521,1.714-3.272,2.957-4.526c12.887-13.003,25.855-25.928,38.805-38.87
	c0.398-0.398,0.834-0.76,1.3-1.182c4.943,4.949,9.774,9.75,14.538,14.618c0.364,0.372,0.479,1.258,0.338,1.81
	c-1.219,4.767,0.505,9.289,4.718,11.771c1.011,0.595,1.331,1.227,1.326,2.37c-0.044,11.138-0.046,22.278-0.001,33.417
	c0.005,1.359-0.287,2.189-1.581,2.951c-3.958,2.332-5.679,6.974-4.47,11.369c1.212,4.399,5.109,7.466,9.629,7.577
	c4.62,0.114,8.665-2.787,10.071-7.222c1.383-4.359-0.179-8.96-4.029-11.533c-0.894-0.597-1.259-1.194-1.255-2.277
	c0.038-11.139,0.022-22.277,0.027-33.416c0.001-0.512,0.066-1.024,0.108-1.627c0.291,0.148,0.472,0.193,0.584,0.306
	c4.238,4.225,8.489,8.437,12.666,12.721c0.36,0.369,0.43,1.27,0.291,1.839c-1.149,4.675,0.661,9.264,4.68,11.654
	c3.902,2.32,8.855,1.808,12.19-1.261c3.412-3.14,4.341-8.116,2.277-12.195c-2.111-4.169-6.575-6.353-11.293-5.414
	c-1.059,0.211-1.714-0.027-2.458-0.787c-4.15-4.228-8.335-8.423-12.57-12.566c-0.886-0.867-1.193-1.616-0.959-2.9
	c1.325-7.245-4.816-13.266-12.059-11.873c-1.055,0.204-1.728-0.037-2.473-0.797c-3.898-3.978-7.844-7.909-11.807-11.823
	c-0.873-0.861-1.885-1.582-2.908-2.429c3.753-3.748,7.142-7.056,10.438-10.456C61.029,2.68,63.041,0.829,65.792,0H68.993z"/>
</svg>
