<?xml version="1.0" encoding="utf-8"?>
<!-- Generator: Adobe Illustrator 17.0.0, SVG Export Plug-In . SVG Version: 6.00 Build 0)  -->
<!DOCTYPE svg PUBLIC "-//W3C//DTD SVG 1.1//EN" "http://www.w3.org/Graphics/SVG/1.1/DTD/svg11.dtd">
<svg version="1.1" id="Layer_1" xmlns="http://www.w3.org/2000/svg" xmlns:xlink="http://www.w3.org/1999/xlink" x="0px" y="0px"
	 width="150.222px" height="119.764px" viewBox="0 0 150.222 119.764" enable-background="new 0 0 150.222 119.764"
	 xml:space="preserve">
<path fill="#FFFFFF" d="M48.033,80.514c-0.74,0-1.452,0.119-2.121,0.333c1.145,0.541,1.944,1.699,1.944,3.051
	c0,1.866-1.515,3.381-3.383,3.381c-1.351,0-2.507-0.798-3.049-1.944c-0.215,0.669-0.332,1.381-0.332,2.12
	c0,3.835,3.107,6.943,6.941,6.943c3.833,0,6.941-3.108,6.941-6.943C54.974,83.622,51.866,80.514,48.033,80.514"/>
<path fill="#FFFFFF" d="M101.122,80.514c-0.74,0-1.451,0.119-2.12,0.333c1.144,0.541,1.943,1.699,1.943,3.051
	c0,1.866-1.515,3.381-3.384,3.381c-1.35,0-2.505-0.798-3.048-1.944c-0.215,0.669-0.331,1.381-0.331,2.12
	c0,3.835,3.107,6.943,6.94,6.943c3.833,0,6.941-3.108,6.941-6.943C108.063,83.622,104.955,80.514,101.122,80.514"/>
<path fill="#FFFFFF" d="M136.89,78.025c0,0,12.413-7.063,14.083-18.144c0,0-8.166-6.976-22.65-1.836c0,0,9.301-6.275,10.702-20.2
	c0,0-10.946-3.205-21.025,4.672c0,0,7.52-12.993,2.938-26.631c0,0-13.208,1.649-19.411,14.393c1.044-2.115,7.36-15.662,1.955-23.606
	c0,0-14.579,0.332-17.616,18.5C86.346,7.172,74.38,0,74.38,0c-11.68,6.006-7.043,30.797-7.043,30.797
	C62.968,5.606,49.752,6.472,49.752,6.472c-5.217,8.279-0.267,24.097-0.267,24.097c-6.14-13.016-19.556-14.683-19.556-14.683
	c-5.15,15.596,2.936,26.631,2.936,26.631c-10.079-7.877-20.368-6.585-20.368-6.585C10.661,49.326,21.985,56.8,21.985,56.8
	C9.292,53.73,1.992,60.577,1.992,60.577c1.668,11.079,11.984,17.448,11.984,17.448c-10.556,0.09-14.192,7.786-14.192,7.786
	c2.737,7.342,11.646,9.482,11.646,9.482c-11.646,3.469-10.858,8.451-10.858,8.451c3.204,5.541,12.281,4.627,12.281,4.627
	c-4.138,2.397-5.339,7.298-5.339,7.298c2.736,5.674,21.302,3.798,21.302,3.798l22.673-0.315
	c-8.162-3.465-17.385-9.467-25.321-19.856c0,0-9.076-10.679-6.586-29.545c0,0,28.122-12.105,44.142,6.761
	c0,0,5.415,7.592,8.31,23.049c-1.677,0.522-2.86,1.759-2.86,3.205c0,1.918,2.072,3.471,4.629,3.471c2.555,0,4.626-1.553,4.626-3.471
	c0-1.667-1.566-3.054-3.656-3.39c0.757-5.287,3.028-15.208,9.775-22.33c0,0,13.706-17.087,43.43-5.517c0,0,2.85,12.458-5.341,26.697
	c0,0-6.559,12.743-23.702,20.263l22.474-0.314c0,0,14.199,1.59,20.309-2.327c0,0-0.669-2.188-6.942-3.739
	c0,0,9.612-4.961,12.814-10.5c0,0-0.889-4.983-8.364-7.653c0,0,7.007-1.61,11.747-8.189
	C150.972,85.767,145.633,76.512,136.89,78.025"/>
<path fill="#FFFFFF" d="M75.161,117.451L75.161,117.451v-1.069c0.112,0,11.181-0.109,12.349-8.439l1.058,0.147
	C87.27,117.344,75.285,117.451,75.161,117.451"/>
</svg>
