<?xml version="1.0" encoding="utf-8"?>
<!-- Generator: Adobe Illustrator 17.0.0, SVG Export Plug-In . SVG Version: 6.00 Build 0)  -->
<!DOCTYPE svg PUBLIC "-//W3C//DTD SVG 1.1//EN" "http://www.w3.org/Graphics/SVG/1.1/DTD/svg11.dtd">
<svg version="1.1" id="Layer_1" xmlns="http://www.w3.org/2000/svg" xmlns:xlink="http://www.w3.org/1999/xlink" x="0px" y="0px"
	 width="128.598px" height="128.551px" viewBox="0 0 128.598 128.551" enable-background="new 0 0 128.598 128.551"
	 xml:space="preserve">
<path fill-rule="evenodd" clip-rule="evenodd" fill="#FFFFFF" d="M37.409,0.427v86.977H0.007v-1.68
	c-0.004-15.58-0.023-31.161,0.028-46.741c0.002-0.769,0.407-1.728,0.951-2.272C12.86,24.805,24.782,12.946,36.695,1.078
	C36.853,0.921,37.025,0.777,37.409,0.427"/>
<path fill-rule="evenodd" clip-rule="evenodd" fill="#FFFFFF" d="M127.89,37.525H41.252c-0.055-0.532-0.143-0.98-0.144-1.428
	c-0.008-11.315,0.03-22.631-0.046-33.946C41.05,0.421,41.543-0.008,43.247,0c15.404,0.07,30.806,0.033,46.209,0.086
	c0.785,0.002,1.782,0.328,2.318,0.865c11.965,11.981,23.879,24.013,35.798,36.04C127.685,37.104,127.744,37.273,127.89,37.525"/>
<path fill-rule="evenodd" clip-rule="evenodd" fill="#FFFFFF" d="M87.528,91.039v37.403c-0.604,0.038-1.173,0.106-1.743,0.106
	c-15.58,0.005-31.159,0.011-46.739-0.032c-0.676-0.002-1.534-0.309-2-0.777c-12.078-12.113-24.114-24.266-36.154-36.415
	c-0.037-0.037-0.044-0.104-0.112-0.285H87.528z"/>
<path fill-rule="evenodd" clip-rule="evenodd" fill="#FFFFFF" d="M91.25,41.056h37.215c0.047,0.534,0.129,1.037,0.13,1.541
	c0.004,15.647,0.015,31.294-0.047,46.94c-0.002,0.826-0.439,1.856-1.023,2.441c-11.877,11.91-23.805,23.768-35.725,35.635
	c-0.119,0.119-0.266,0.212-0.55,0.433V41.056z"/>
</svg>
