<?xml version="1.0" encoding="utf-8"?>
<!-- Generator: Adobe Illustrator 17.0.0, SVG Export Plug-In . SVG Version: 6.00 Build 0)  -->
<!DOCTYPE svg PUBLIC "-//W3C//DTD SVG 1.1//EN" "http://www.w3.org/Graphics/SVG/1.1/DTD/svg11.dtd">
<svg version="1.1" id="Layer_1" xmlns="http://www.w3.org/2000/svg" xmlns:xlink="http://www.w3.org/1999/xlink" x="0px" y="0px"
	 width="39px" height="39px" viewBox="0 0 39 39" enable-background="new 0 0 39 39" xml:space="preserve">
<path fill="#FFFFFF" d="M39,8.01C39,3.586,35.414,0,30.991,0H8.009C3.586,0,0,3.586,0,8.01v22.981C0,35.414,3.586,39,8.009,39
	h22.982C35.414,39,39,35.414,39,30.991V8.01z M31.409,11.557c-0.632,0.917-1.394,1.707-2.29,2.367
	c-0.059,0.043-0.081,0.086-0.079,0.16c0.017,0.479,0.015,0.957-0.02,1.435c-0.054,0.776-0.172,1.542-0.355,2.298
	c-0.507,2.072-1.406,3.956-2.734,5.627c-1.637,2.064-3.699,3.533-6.199,4.375c-0.758,0.254-1.534,0.436-2.325,0.555
	c-0.921,0.141-1.847,0.195-2.776,0.161c-2.485-0.094-4.782-0.8-6.892-2.116c-0.023-0.014-0.046-0.03-0.079-0.051
	c0.05-0.023,0.092-0.01,0.132-0.006c0.384,0.039,0.767,0.057,1.153,0.049c2.161-0.047,4.107-0.719,5.83-2.023
	c0.018-0.015,0.034-0.027,0.051-0.042c0.004-0.004,0.005-0.011,0.01-0.022c-1.44-0.068-2.643-0.63-3.594-1.715
	c-0.42-0.478-0.895-1.348-0.933-1.687c0.727,0.134,1.445,0.111,2.155-0.084c-1.352-0.318-2.413-1.052-3.153-2.228
	c-0.502-0.799-0.735-1.676-0.733-2.635c0.688,0.375,1.41,0.578,2.196,0.61c-1.415-1.034-2.157-2.405-2.153-4.152
	c0.002-0.844,0.23-1.634,0.658-2.377c1.772,2.132,3.956,3.634,6.588,4.479c1.135,0.364,2.299,0.57,3.499,0.629
	c-0.014-0.076-0.028-0.14-0.039-0.207c-0.252-1.476,0.07-2.81,1.007-3.98c0.757-0.945,1.745-1.539,2.941-1.739
	c1.661-0.279,3.109,0.181,4.323,1.352c0.086,0.084,0.155,0.108,0.273,0.082c1.012-0.222,1.966-0.588,2.862-1.107
	c0.023-0.013,0.045-0.024,0.067-0.035c-0.37,1.146-1.074,2.027-2.079,2.675c0.475-0.047,0.938-0.142,1.396-0.267
	c0.455-0.125,0.897-0.284,1.342-0.461C31.442,11.503,31.426,11.532,31.409,11.557"/>
</svg>
