<?xml version="1.0" encoding="utf-8"?>
<!-- Generator: Adobe Illustrator 17.0.0, SVG Export Plug-In . SVG Version: 6.00 Build 0)  -->
<!DOCTYPE svg PUBLIC "-//W3C//DTD SVG 1.1//EN" "http://www.w3.org/Graphics/SVG/1.1/DTD/svg11.dtd">
<svg version="1.1" id="Layer_1" xmlns="http://www.w3.org/2000/svg" xmlns:xlink="http://www.w3.org/1999/xlink" x="0px" y="0px"
	 width="39px" height="39px" viewBox="0 0 39 39" enable-background="new 0 0 39 39" xml:space="preserve">
<path fill="#FFFFFF" d="M39,8.01C39,3.586,35.414,0,30.99,0H8.009C3.586,0,0,3.586,0,8.01v22.98C0,35.414,3.586,39,8.009,39H30.99
	c4.424,0,8.01-3.586,8.01-8.01V8.01z M13,31H8V15h5V31z M11.446,13.291c-1.57,0.026-2.925-1.321-2.943-2.931
	c-0.017-1.605,1.3-2.959,2.893-2.972c1.584-0.014,2.933,1.32,2.954,2.921C14.371,11.889,13.033,13.264,11.446,13.291 M32.482,30.992
	c0,0.053-0.018,0.008-0.033,0.008H27v-0.276c0-2.594,0.302-5.19,0.287-7.785c-0.003-0.488,0.088-0.985-0.014-1.464
	c-0.268-1.258-0.955-1.941-2.156-2.062c-1.365-0.139-2.468,0.426-2.92,1.584c-0.228,0.581-0.766,1.235-0.776,1.859
	C21.381,25.487,21,28.119,21,30.75V31h-5V15h5v2.348c0,0.021,0.485,0.04,0.518,0.061c0.115-0.143,0.439-0.286,0.556-0.428
	c2.299-2.776,7.05-2.765,9.121,0.03c0.798,1.078,1.214,2.23,1.225,3.549C32.45,24.069,32.482,27.484,32.482,30.992"/>
</svg>
